# xmcd
#
# Track frame offsets: 
#        150
#        15567
#        31252
#        44148
#        60474
#        74957
#        90828
#        104216
#        119063
#        133192
#        148381
#        163918
#        178741
#        192494
#        202837
#        218365
#        233060
#        248225
#        262400
#        276612
#        292474
#        305869
#        318309
#
# Disc length: 4442 seconds
#
# Revision: 1
# Processed by: cddbd v1.5.2PL0 Copyright (c) Steve Scherf et al.
# Submitted via: ExactAudioCopyFreeDBPlugin 1.0
#
DISCID=87115817
DTITLE=Glenn Miller and His Orchestra - Big Band Legends CD 4, 2001
DYEAR=2001
DGENRE=Big Band
TTITLE0=Moonlight Serenade
TTITLE1=Sunrise Serenade
TTITLE2=Little Brown Jug
TTITLE3=In The Mood
TTITLE4=Glenn Miller and His Orchestra v. Marion Hutton, Tex Beneke and Th
TTITLE4=e Modernaires - Don't Sit Under The Apple Tree
TTITLE5=Tuxedo Junction
TTITLE6=Adios
TTITLE7=Pennsylvannia 6-5000
TTITLE8=Glenn Miller and His Orchestra v. Ray Eberle and The Modernaires /
TTITLE8=Elmer's Tune
TTITLE9=Perfidia
TTITLE10=Glenn Miller and His Orchestra v. Tex Beneke and The Modernaires 
TTITLE10=/ Chattanooga Choo Choo
TTITLE11=Glenn Miller and His Orchestra v. Marion Hutton, Tex Beneke and T
TTITLE11=he Modernaires - I've Gt A Gal In Kalamazoo
TTITLE12=Glenn Miller and His Orchestra v. Paula Kelly and The Modernaires
TTITLE12=I Know Why
TTITLE13=Danny Boy
TTITLE14=Song Of The Volga Boatman
TTITLE15=String Of Pearls
TTITLE16=American Patrol
TTITLE17=Glenn Miller and His Orchestra v. Ray Eberle - At Last
TTITLE18=Glenn Miller and His Orchestra v. Marion Hutton, Tex Beneke and T
TTITLE18=he Modernaires - Juke Box Sturday Night
TTITLE19=Glenn Miller and His Orchestra v. Ray Eberle and The Modernaires 
TTITLE19=/ Serenade In Blue
TTITLE20=Glenn Miller and His Orchestra v. Ray Eberle  - The White Cliff
TTITLE20=s Of Dover
TTITLE21=Glenn Miller and His Orchestra v. Ray Eberle  - When The Swallo
TTITLE21=ws Come Back To Capristrano
TTITLE22=Glenn Miller and His Orchestra v. Ray Eberle and The Modernaires 
TTITLE22=/ Moonlight Cocktail
EXTD=Big Band Legends Disc 4 of 4\nJasmine Records\n0498803012
EXTT0=
EXTT1=
EXTT2=
EXTT3=
EXTT4=
EXTT5=
EXTT6=
EXTT7=
EXTT8=
EXTT9=
EXTT10=
EXTT11=
EXTT12=
EXTT13=
EXTT14=
EXTT15=
EXTT16=
EXTT17=
EXTT18=
EXTT19=
EXTT20=
EXTT21=
EXTT22=
PLAYORDER=
